# xmcd CD database file
#
# Track frame offsets:
#	150
#	23348
#	46729
#	72640
#	95405
#	118155
#	140979
#	161711
#	183448
#	203598
#	229957
#	252540
#	280135
#	312844
#
# Disc length: 4591 seconds
#
# Revision: 0
# Processed by: cddbd v1.5.1PL0 Copyright (c) Steve Scherf et al.
# Submitted via: CDex 1.51
#
DISCID=cc11ed0e
DTITLE=Various Artist - Studio Zamora 2002
DYEAR=2002
DGENRE=Salsa
TTITLE0=Barretto
TTITLE1=Gilberto Santa Rosa
TTITLE2=Grupo Niche
TTITLE3=Ask Hector
TTITLE4=DLG
TTITLE5=Son By Four
TTITLE6=Grupo Niche
TTITLE7=Rey Ruiz
TTITLE8=Rey Ruiz
TTITLE9=Rey Ruiz
TTITLE10=Jimmy Bosch
TTITLE11=Jimmy Bosch
TTITLE12=Richie Rey, Bobby Cruz
TTITLE13=Richie Rey, Bobby Cruz
EXTD=YEAR: 2002
EXTT0=
EXTT1=
EXTT2=
EXTT3=
EXTT4=
EXTT5=
EXTT6=
EXTT7=
EXTT8=
EXTT9=
EXTT10=
EXTT11=
EXTT12=
EXTT13=
PLAYORDER=
